<svg width="34" height="34" viewBox="0 0 34 34" fill="none" xmlns="http://www.w3.org/2000/svg">
<g clip-path="url(#clip0_458_399)">
<path d="M4.25 7.08333C4.25 5.51853 5.51853 4.25 7.08333 4.25H11.7289C12.3387 4.25 12.8801 4.64019 13.0729 5.21868L15.1948 11.5844C15.4177 12.2532 15.115 12.9842 14.4844 13.2995L11.2866 14.8984C12.8481 18.3617 15.6383 21.1519 19.1016 22.7134L20.7005 19.5156C21.0158 18.885 21.7468 18.5823 22.4156 18.8052L28.7813 20.9271C29.3598 21.1199 29.75 21.6613 29.75 22.2711V26.9167C29.75 28.4815 28.4815 29.75 26.9167 29.75H25.5C13.7639 29.75 4.25 20.2361 4.25 8.5V7.08333Z" stroke="#E7E3DA" stroke-width="2" stroke-linecap="round" stroke-linejoin="round"/>
<path d="M19.8086 10.5V9.39844L22.8086 6.50391C23.6641 5.64844 24.1094 5.14453 24.1094 4.42969C24.1094 3.64453 23.4883 3.14062 22.6562 3.14062C21.7773 3.14062 21.2148 3.69141 21.2266 4.54688H19.7734C19.7617 2.94141 20.9688 1.89844 22.668 1.89844C24.4023 1.89844 25.5742 2.92969 25.5742 4.35938C25.5742 5.32031 25.1055 6.09375 23.4414 7.66406L21.9297 9.16406V9.22266H25.7031V10.5H19.8086ZM26.6992 8.91797V7.69922L30.3672 2.01562H32.2656V7.66406H33.3789V8.91797H32.2656V10.5H30.8125V8.91797H26.6992ZM28.2578 7.66406H30.8359V3.75H30.7422L28.2578 7.60547V7.66406Z" fill="#E7E3DA"/>
</g>
<defs>
<clipPath id="clip0_458_399">
<rect width="34" height="34" fill="white"/>
</clipPath>
</defs>
</svg>
