<svg width="34" height="34" viewBox="0 0 34 34" fill="none" xmlns="http://www.w3.org/2000/svg">
<path d="M17 32.5834L16.4453 33.4154C16.7812 33.6393 17.2188 33.6393 17.5547 33.4154L17 32.5834ZM26.0156 5.15108L26.7227 4.44397L26.0156 5.15108ZM7.98439 5.15108L7.27728 4.44397L7.98439 5.15108ZM28.75 14.1667C28.75 18.7231 25.7968 23.0834 22.649 26.406C21.0956 28.0457 19.5388 29.3867 18.3693 30.318C17.7853 30.783 17.2998 31.1443 16.9624 31.3881C16.7937 31.5099 16.6621 31.6023 16.5738 31.6634C16.5297 31.694 16.4964 31.7167 16.4747 31.7314C16.4639 31.7388 16.4559 31.7442 16.451 31.7475C16.4485 31.7491 16.4468 31.7503 16.4459 31.7509C16.4454 31.7512 16.4451 31.7514 16.445 31.7515C16.445 31.7515 16.445 31.7515 16.445 31.7515C16.4451 31.7514 16.4453 31.7513 17 32.5834C17.5547 33.4154 17.555 33.4152 17.5553 33.415C17.5555 33.4149 17.5558 33.4147 17.5562 33.4144C17.5568 33.414 17.5577 33.4134 17.5588 33.4127C17.5609 33.4112 17.5638 33.4093 17.5675 33.4068C17.5748 33.4019 17.5852 33.3949 17.5984 33.3859C17.625 33.3679 17.6633 33.3417 17.7126 33.3076C17.8111 33.2393 17.9534 33.1394 18.1333 33.0094C18.4931 32.7496 19.0038 32.3694 19.6151 31.8826C20.8362 30.9102 22.4669 29.5064 24.101 27.7815C27.3282 24.3749 30.75 19.527 30.75 14.1667H28.75ZM25.3085 5.85818C27.5121 8.06173 28.75 11.0504 28.75 14.1667H30.75C30.75 10.52 29.3013 7.02259 26.7227 4.44397L25.3085 5.85818ZM17 2.41669C20.1163 2.41669 23.1049 3.65463 25.3085 5.85818L26.7227 4.44397C24.1441 1.86534 20.6467 0.416687 17 0.416687V2.41669ZM8.69149 5.85818C10.895 3.65463 13.8837 2.41669 17 2.41669V0.416687C13.3533 0.416687 9.85591 1.86534 7.27728 4.44397L8.69149 5.85818ZM5.25 14.1667C5.25 11.0504 6.48794 8.06173 8.69149 5.85818L7.27728 4.44397C4.69866 7.02259 3.25 10.52 3.25 14.1667H5.25ZM17 32.5834C17.5547 31.7513 17.5549 31.7514 17.555 31.7515C17.555 31.7515 17.555 31.7515 17.555 31.7515C17.5549 31.7514 17.5546 31.7512 17.5541 31.7509C17.5532 31.7503 17.5515 31.7491 17.549 31.7475C17.5441 31.7442 17.5361 31.7388 17.5253 31.7314C17.5036 31.7167 17.4703 31.694 17.4262 31.6634C17.3379 31.6023 17.2063 31.5099 17.0376 31.3881C16.7002 31.1443 16.2147 30.783 15.6307 30.318C14.4612 29.3867 12.9044 28.0457 11.351 26.406C8.20324 23.0834 5.25 18.7231 5.25 14.1667H3.25C3.25 19.527 6.67176 24.3749 9.89905 27.7815C11.5331 29.5064 13.1638 30.9102 14.3849 31.8826C14.9962 32.3694 15.5069 32.7496 15.8667 33.0094C16.0466 33.1394 16.1889 33.2393 16.2874 33.3076C16.3367 33.3417 16.375 33.3679 16.4016 33.3859C16.4148 33.3949 16.4252 33.4019 16.4325 33.4068C16.4362 33.4093 16.4391 33.4112 16.4412 33.4127C16.4423 33.4134 16.4432 33.414 16.4438 33.4144C16.4442 33.4147 16.4445 33.4149 16.4447 33.415C16.445 33.4152 16.4453 33.4154 17 32.5834ZM17 19.4167C19.8995 19.4167 22.25 17.0662 22.25 14.1667H20.25C20.25 15.9616 18.7949 17.4167 17 17.4167V19.4167ZM11.75 14.1667C11.75 17.0662 14.1005 19.4167 17 19.4167V17.4167C15.2051 17.4167 13.75 15.9616 13.75 14.1667H11.75ZM17 8.91669C14.1005 8.91669 11.75 11.2672 11.75 14.1667H13.75C13.75 12.3718 15.2051 10.9167 17 10.9167V8.91669ZM22.25 14.1667C22.25 11.2672 19.8995 8.91669 17 8.91669V10.9167C18.7949 10.9167 20.25 12.3718 20.25 14.1667H22.25Z" fill="#E7E3DA"/>
</svg>
