<svg width="34" height="34" viewBox="0 0 34 34" fill="none" xmlns="http://www.w3.org/2000/svg">
<path d="M5.66732 6.66675H28.334C28.8202 6.66675 29.2865 6.8599 29.6303 7.20372C29.9742 7.54754 30.1673 8.01385 30.1673 8.50008V22.6667C30.1673 22.7773 30.1234 22.8832 30.0453 22.9614C29.9671 23.0395 29.8612 23.0834 29.7507 23.0834H4.25065C4.14014 23.0834 4.03416 23.0395 3.95602 22.9614C3.87788 22.8832 3.83398 22.7773 3.83398 22.6667V8.50008C3.83398 8.01385 4.02714 7.54754 4.37096 7.20372C4.71477 6.8599 5.18109 6.66675 5.66732 6.66675Z" stroke="#E7E3DA" stroke-width="2"/>
<rect x="3" y="25" width="28" height="2" rx="1" fill="#E7E3DA"/>
</svg>
