<svg width="34" height="34" viewBox="0 0 34 34" fill="none" xmlns="http://www.w3.org/2000/svg">
<path d="M5.15652 31.875H5.09941C4.64842 31.8734 4.21651 31.6928 3.8986 31.3729C3.5807 31.053 3.40282 30.62 3.40406 30.169V30.086C3.41533 29.9408 3.44137 29.797 3.48175 29.657L4.75343 25.0564C4.72049 24.9613 4.67823 24.8696 4.62726 24.7828C4.59601 24.7309 4.5621 24.6805 4.52566 24.6321L4.48913 24.5803C2.94401 22.2393 2.12185 19.4955 2.12507 16.6905C2.11312 12.8675 3.60925 9.25305 6.33855 6.51379C9.16015 3.68356 12.942 2.125 16.9881 2.125C20.4199 2.12373 23.7499 3.29101 26.4298 5.43469C29.0501 7.54375 30.871 10.4816 31.5557 13.7149C31.7666 14.6959 31.8736 15.6964 31.8751 16.6998C31.8751 20.6138 30.3716 24.2894 27.6417 27.0513C24.8865 29.837 21.1883 31.3716 17.2265 31.3716C15.8253 31.3716 14.045 31.0157 13.1903 30.774C12.1385 30.4791 11.1185 30.0873 11.076 30.0707C10.9618 30.0267 10.8404 30.0042 10.718 30.0043C10.5853 30.0034 10.4538 30.0296 10.3316 30.0814L10.2778 30.1026L5.798 31.7216C5.61116 31.7988 5.41409 31.8485 5.21296 31.869L5.15652 31.875ZM6.25023 23.3863C6.32527 23.4886 6.39632 23.5961 6.4614 23.705L6.47003 23.7203C6.85386 24.3917 6.97605 24.996 6.83394 25.5133L5.73624 29.4844L9.53202 28.1144C10.27 27.8126 11.0953 27.8035 11.8396 28.0892C11.8801 28.1051 12.8078 28.4624 13.7654 28.7293C14.6599 28.9797 16.178 29.246 17.2292 29.246C24.1354 29.246 29.7527 23.618 29.7527 16.6998C29.7519 15.8454 29.6613 14.9934 29.4825 14.1578C28.2619 8.41566 23.0092 4.25 16.9881 4.25C13.5111 4.25 10.2632 5.58676 7.84398 8.01391C5.51577 10.3494 4.23945 13.4293 4.25007 16.6872C4.24741 19.0678 4.94281 21.3969 6.25023 23.3863Z" fill="#E7E3DA"/>
<path d="M10.625 19.125C11.7986 19.125 12.75 18.1736 12.75 17C12.75 15.8264 11.7986 14.875 10.625 14.875C9.45139 14.875 8.5 15.8264 8.5 17C8.5 18.1736 9.45139 19.125 10.625 19.125Z" fill="#E7E3DA"/>
<path d="M17 19.125C18.1736 19.125 19.125 18.1736 19.125 17C19.125 15.8264 18.1736 14.875 17 14.875C15.8264 14.875 14.875 15.8264 14.875 17C14.875 18.1736 15.8264 19.125 17 19.125Z" fill="#E7E3DA"/>
<path d="M23.375 19.125C24.5486 19.125 25.5 18.1736 25.5 17C25.5 15.8264 24.5486 14.875 23.375 14.875C22.2014 14.875 21.25 15.8264 21.25 17C21.25 18.1736 22.2014 19.125 23.375 19.125Z" fill="#E7E3DA"/>
</svg>
